<svg aria-roledescription="er" role="graphics-document document" viewBox="-81.00961303710938 0 864.966796875 965.5" style="max-width: 864.967px; background-color: white;" xmlns:xlink="http://www.w3.org/1999/xlink" xmlns="http://www.w3.org/2000/svg" width="100%" id="my-svg"><style>#my-svg{font-family:"trebuchet ms",verdana,arial,sans-serif;font-size:16px;fill:#000000;}#my-svg .error-icon{fill:#552222;}#my-svg .error-text{fill:#552222;stroke:#552222;}#my-svg .edge-thickness-normal{stroke-width:2px;}#my-svg .edge-thickness-thick{stroke-width:3.5px;}#my-svg .edge-pattern-solid{stroke-dasharray:0;}#my-svg .edge-pattern-dashed{stroke-dasharray:3;}#my-svg .edge-pattern-dotted{stroke-dasharray:2;}#my-svg .marker{fill:#000000;stroke:#000000;}#my-svg .marker.cross{stroke:#000000;}#my-svg svg{font-family:"trebuchet ms",verdana,arial,sans-serif;font-size:16px;}#my-svg .entityBox{fill:#cde498;stroke:#13540c;}#my-svg .attributeBoxOdd{fill:#ffffff;stroke:#13540c;}#my-svg .attributeBoxEven{fill:#f2f2f2;stroke:#13540c;}#my-svg .relationshipLabelBox{fill:hsl(78.1578947368, 58.4615384615%, 84.5098039216%);opacity:0.7;background-color:hsl(78.1578947368, 58.4615384615%, 84.5098039216%);}#my-svg .relationshipLabelBox rect{opacity:0.5;}#my-svg .relationshipLine{stroke:#000000;}#my-svg .entityTitleText{text-anchor:middle;font-size:18px;fill:#000000;}#my-svg #MD_PARENT_START{fill:#f5f5f5!important;stroke:#000000!important;stroke-width:1;}#my-svg #MD_PARENT_END{fill:#f5f5f5!important;stroke:#000000!important;stroke-width:1;}#my-svg :root{--mermaid-font-family:"trebuchet ms",verdana,arial,sans-serif;}</style><g/><defs><marker orient="auto" markerHeight="240" markerWidth="190" refY="7" refX="0" id="MD_PARENT_START"><path d="M 18,7 L9,13 L1,7 L9,1 Z"/></marker></defs><defs><marker orient="auto" markerHeight="28" markerWidth="20" refY="7" refX="19" id="MD_PARENT_END"><path d="M 18,7 L9,13 L1,7 L9,1 Z"/></marker></defs><defs><marker orient="auto" markerHeight="18" markerWidth="18" refY="9" refX="0" id="ONLY_ONE_START"><path d="M9,0 L9,18 M15,0 L15,18" fill="none" stroke="gray"/></marker></defs><defs><marker orient="auto" markerHeight="18" markerWidth="18" refY="9" refX="18" id="ONLY_ONE_END"><path d="M3,0 L3,18 M9,0 L9,18" fill="none" stroke="gray"/></marker></defs><defs><marker orient="auto" markerHeight="18" markerWidth="30" refY="9" refX="0" id="ZERO_OR_ONE_START"><circle r="6" cy="9" cx="21" fill="white" stroke="gray"/><path d="M9,0 L9,18" fill="none" stroke="gray"/></marker></defs><defs><marker orient="auto" markerHeight="18" markerWidth="30" refY="9" refX="30" id="ZERO_OR_ONE_END"><circle r="6" cy="9" cx="9" fill="white" stroke="gray"/><path d="M21,0 L21,18" fill="none" stroke="gray"/></marker></defs><defs><marker orient="auto" markerHeight="36" markerWidth="45" refY="18" refX="18" id="ONE_OR_MORE_START"><path d="M0,18 Q 18,0 36,18 Q 18,36 0,18 M42,9 L42,27" fill="none" stroke="gray"/></marker></defs><defs><marker orient="auto" markerHeight="36" markerWidth="45" refY="18" refX="27" id="ONE_OR_MORE_END"><path d="M3,9 L3,27 M9,18 Q27,0 45,18 Q27,36 9,18" fill="none" stroke="gray"/></marker></defs><defs><marker orient="auto" markerHeight="36" markerWidth="57" refY="18" refX="18" id="ZERO_OR_MORE_START"><circle r="6" cy="18" cx="48" fill="white" stroke="gray"/><path d="M0,18 Q18,0 36,18 Q18,36 0,18" fill="none" stroke="gray"/></marker></defs><defs><marker orient="auto" markerHeight="36" markerWidth="57" refY="18" refX="39" id="ZERO_OR_MORE_END"><circle r="6" cy="18" cx="9" fill="white" stroke="gray"/><path d="M21,18 Q39,0 57,18 Q39,36 21,18" fill="none" stroke="gray"/></marker></defs><path style="stroke: gray; fill: none;" marker-start="url(#ZERO_OR_MORE_START)" marker-end="url(#ZERO_OR_MORE_END)" d="M294.79707136445245,198.5L291.8048511370437,206.83333333333334C288.81263090963495,215.16666666666666,282.8281904548175,231.83333333333334,282.8281904548175,248.5C282.8281904548175,265.1666666666667,288.81263090963495,281.8333333333333,291.8048511370437,290.1666666666667L294.79707136445245,298.5" class="er relationshipLine"/><path style="stroke: gray; fill: none;" marker-start="url(#ZERO_OR_MORE_START)" marker-end="url(#ZERO_OR_MORE_END)" d="M259.9375,133.52828051995644L207.130859375,152.69023376663037C154.32421875,171.85218701330427,48.7109375,210.17609350665214,-4.095703125,252.5463800866594C-56.90234375,294.9166666666667,-56.90234375,341.3333333333333,-56.90234375,387.75C-56.90234375,434.1666666666667,-56.90234375,480.5833333333333,-44.085286458333336,515.6901681857639C-31.268229166666668,550.7970030381945,-5.634114583333333,574.5940060763888,7.182942708333333,586.4925075954861L20,598.3910091145833" class="er relationshipLine"/><path style="stroke: gray; fill: none;" marker-start="url(#ZERO_OR_MORE_START)" marker-end="url(#ZERO_OR_MORE_END)" d="M393.75,159.9541816365144L413.2233072916667,174.71181803042865C432.6966145833333,189.4694544243429,471.6432291666667,218.98472721217146,491.1165364583333,256.95069693941906C510.58984375,294.9166666666667,510.58984375,341.3333333333333,510.58984375,387.75C510.58984375,434.1666666666667,510.58984375,480.5833333333333,523.2630208333334,515.5565993923611C535.9361979166666,550.5298654513889,561.2825520833334,574.0597309027778,573.9557291666666,585.8246636284722L586.62890625,597.5895963541667" class="er relationshipLine"/><path style="stroke: gray; fill: none;" marker-start="url(#ZERO_OR_ONE_START)" marker-end="url(#ONLY_ONE_END)" d="M358.89042863554755,298.5L361.8826488629563,290.1666666666667C364.87486909036505,281.8333333333333,370.8593095451825,265.1666666666667,370.8593095451825,248.5C370.8593095451825,231.83333333333334,364.87486909036505,215.16666666666666,361.8826488629563,206.83333333333334L358.89042863554755,198.5" class="er relationshipLine"/><path style="stroke: gray; fill: none;" marker-start="url(#ZERO_OR_MORE_START)" marker-end="url(#ZERO_OR_MORE_END)" d="M259.3515625,420.8721726620686L223.30924479166666,438.5601438850572C187.26692708333334,456.24811510804574,115.18229166666667,491.62405755402284,82.790482635772,519.4786954436781C50.398673604877324,547.3333333333334,57.69969095975464,567.6666666666666,61.350199637193306,577.8333333333334L65.00070831463196,588" class="er relationshipLine"/><path style="stroke: gray; fill: none;" marker-start="url(#ZERO_OR_MORE_START)" marker-end="url(#ZERO_OR_MORE_END)" d="M394.3359375,420.8721726620686L430.3782552083333,438.5601438850572C466.4205729166667,456.24811510804574,538.5052083333334,491.62405755402284,577.5397462690754,517.6453621103448C616.5742842048174,543.6666666666666,622.558724659635,560.3333333333334,625.5509448870438,568.6666666666666L628.5431651144524,577" class="er relationshipLine"/><path style="stroke: gray; fill: none;" marker-start="url(#ZERO_OR_ONE_START)" marker-end="url(#ONLY_ONE_END)" d="M93.09765625,744.5L93.09765625,754.6666666666666C93.09765625,764.8333333333334,93.09765625,785.1666666666666,93.09765625,803.6666666666666C93.09765625,822.1666666666666,93.09765625,838.8333333333334,93.09765625,847.1666666666666L93.09765625,855.5" class="er relationshipLine"/><path style="stroke: gray; fill: none;" marker-start="url(#ZERO_OR_ONE_START)" marker-end="url(#ONLY_ONE_END)" d="M121.19460418536804,588L124.84511286280669,577.8333333333334C128.49562154024537,567.6666666666666,135.79663889512267,547.3333333333334,139.44714757256133,513.9583333333334C143.09765625,480.5833333333333,143.09765625,434.1666666666667,143.09765625,387.75C143.09765625,341.3333333333333,143.09765625,294.9166666666667,162.57096354166666,256.95069693941906C182.04427083333334,218.98472721217146,220.99088541666666,189.4694544243429,240.46419270833334,174.71181803042865L259.9375,159.9541816365144" class="er relationshipLine"/><path style="stroke: gray; fill: none;" marker-start="url(#ZERO_OR_ONE_START)" marker-end="url(#ONLY_ONE_END)" d="M166.1953125,622.7033957786728L192.97005208333334,606.7528298155606C219.74479166666666,590.8022638524485,273.2942708333333,558.9011319262243,300.0690104166667,534.6172326297788C326.84375,510.3333333333333,326.84375,493.6666666666667,326.84375,485.3333333333333L326.84375,477" class="er relationshipLine"/><path style="stroke: gray; fill: none;" marker-start="url(#ZERO_OR_ONE_START)" marker-end="url(#ONLY_ONE_END)" d="M660.58984375,755.5L660.58984375,763.8333333333334C660.58984375,772.1666666666666,660.58984375,788.8333333333334,660.58984375,805.5C660.58984375,822.1666666666666,660.58984375,838.8333333333334,660.58984375,847.1666666666666L660.58984375,855.5" class="er relationshipLine"/><path style="stroke: gray; fill: none;" marker-start="url(#ZERO_OR_ONE_START)" marker-end="url(#ONLY_ONE_END)" d="M692.6365223855476,577L695.6287426129562,568.6666666666666C698.620962840365,560.3333333333334,704.6054032951824,543.6666666666666,707.5976235225912,512.125C710.58984375,480.5833333333333,710.58984375,434.1666666666667,710.58984375,387.75C710.58984375,341.3333333333333,710.58984375,294.9166666666667,657.783203125,252.5463800866594C604.9765625,210.17609350665214,499.36328125,171.85218701330427,446.556640625,152.69023376663037L393.75,133.52828051995644" class="er relationshipLine"/><path style="stroke: gray; fill: none;" marker-start="url(#ZERO_OR_ONE_START)" marker-end="url(#ONLY_ONE_END)" d="M734.55078125,597.5895963541667L747.2239583333334,585.8246636284722C759.8971354166666,574.0597309027778,785.2434895833334,550.5298654513889,728.541015625,518.7946228206296C671.8385416666666,487.0593801898702,533.0872395833334,447.1187603797404,463.7115885416667,427.1484504746755L394.3359375,407.17814056961055" class="er relationshipLine"/><g transform="translate(43.09765625,855.5 )" id="entity-MemberRole-333c5427-bf7a-549d-aab6-54744779d2bb"><rect height="90" width="100" y="0" x="0" class="er entityBox"/><text style="dominant-baseline: middle; text-anchor: middle; font-size: 12px;" transform="translate(50,12)" y="0" x="0" id="text-entity-MemberRole-333c5427-bf7a-549d-aab6-54744779d2bb" class="er entityLabel">MemberRole</text><rect height="22" width="50" y="24" x="0" class="er attributeBoxOdd"/><text style="dominant-baseline: middle; font-size: 10.2px;" transform="translate(5,35)" y="0" x="0" id="text-entity-MemberRole-333c5427-bf7a-549d-aab6-54744779d2bb-attr-1-type" class="er entityLabel">ADMIN</text><rect height="22" width="50" y="24" x="50" class="er attributeBoxOdd"/><text style="dominant-baseline: middle; font-size: 10.2px;" transform="translate(55,35)" y="0" x="0" id="text-entity-MemberRole-333c5427-bf7a-549d-aab6-54744779d2bb-attr-1-name" class="er entityLabel">ADMIN</text><rect height="22" width="50" y="46" x="0" class="er attributeBoxEven"/><text style="dominant-baseline: middle; font-size: 10.2px;" transform="translate(5,57)" y="0" x="0" id="text-entity-MemberRole-333c5427-bf7a-549d-aab6-54744779d2bb-attr-2-type" class="er entityLabel">MEMBER</text><rect height="22" width="50" y="46" x="50" class="er attributeBoxEven"/><text style="dominant-baseline: middle; font-size: 10.2px;" transform="translate(55,57)" y="0" x="0" id="text-entity-MemberRole-333c5427-bf7a-549d-aab6-54744779d2bb-attr-2-name" class="er entityLabel">MEMBER</text><rect height="22" width="50" y="68" x="0" class="er attributeBoxOdd"/><text style="dominant-baseline: middle; font-size: 10.2px;" transform="translate(5,79)" y="0" x="0" id="text-entity-MemberRole-333c5427-bf7a-549d-aab6-54744779d2bb-attr-3-type" class="er entityLabel">GUEST</text><rect height="22" width="50" y="68" x="50" class="er attributeBoxOdd"/><text style="dominant-baseline: middle; font-size: 10.2px;" transform="translate(55,79)" y="0" x="0" id="text-entity-MemberRole-333c5427-bf7a-549d-aab6-54744779d2bb-attr-3-name" class="er entityLabel">GUEST</text></g><g transform="translate(610.58984375,855.5 )" id="entity-ChannelType-1ab8779b-007d-5df4-bb2c-eca4de33ccfb"><rect height="90" width="100" y="0" x="0" class="er entityBox"/><text style="dominant-baseline: middle; text-anchor: middle; font-size: 12px;" transform="translate(50,12)" y="0" x="0" id="text-entity-ChannelType-1ab8779b-007d-5df4-bb2c-eca4de33ccfb" class="er entityLabel">ChannelType</text><rect height="22" width="50" y="24" x="0" class="er attributeBoxOdd"/><text style="dominant-baseline: middle; font-size: 10.2px;" transform="translate(5,35)" y="0" x="0" id="text-entity-ChannelType-1ab8779b-007d-5df4-bb2c-eca4de33ccfb-attr-1-type" class="er entityLabel">TEXT</text><rect height="22" width="50" y="24" x="50" class="er attributeBoxOdd"/><text style="dominant-baseline: middle; font-size: 10.2px;" transform="translate(55,35)" y="0" x="0" id="text-entity-ChannelType-1ab8779b-007d-5df4-bb2c-eca4de33ccfb-attr-1-name" class="er entityLabel">TEXT</text><rect height="22" width="50" y="46" x="0" class="er attributeBoxEven"/><text style="dominant-baseline: middle; font-size: 10.2px;" transform="translate(5,57)" y="0" x="0" id="text-entity-ChannelType-1ab8779b-007d-5df4-bb2c-eca4de33ccfb-attr-2-type" class="er entityLabel">AUDIO</text><rect height="22" width="50" y="46" x="50" class="er attributeBoxEven"/><text style="dominant-baseline: middle; font-size: 10.2px;" transform="translate(55,57)" y="0" x="0" id="text-entity-ChannelType-1ab8779b-007d-5df4-bb2c-eca4de33ccfb-attr-2-name" class="er entityLabel">AUDIO</text><rect height="22" width="50" y="68" x="0" class="er attributeBoxOdd"/><text style="dominant-baseline: middle; font-size: 10.2px;" transform="translate(5,79)" y="0" x="0" id="text-entity-ChannelType-1ab8779b-007d-5df4-bb2c-eca4de33ccfb-attr-3-type" class="er entityLabel">VOICE</text><rect height="22" width="50" y="68" x="50" class="er attributeBoxOdd"/><text style="dominant-baseline: middle; font-size: 10.2px;" transform="translate(55,79)" y="0" x="0" id="text-entity-ChannelType-1ab8779b-007d-5df4-bb2c-eca4de33ccfb-attr-3-name" class="er entityLabel">VOICE</text></g><g transform="translate(259.9375,20 )" id="entity-Profile-65951d1c-3786-5f44-9bc8-1c33704e73ca"><rect height="178.5" width="133.8125" y="0" x="0" class="er entityBox"/><text style="dominant-baseline: middle; text-anchor: middle; font-size: 12px;" transform="translate(66.90625,12)" y="0" x="0" id="text-entity-Profile-65951d1c-3786-5f44-9bc8-1c33704e73ca" class="er entityLabel">Profile</text><rect height="22.5" width="53.6640625" y="24" x="0" class="er attributeBoxOdd"/><text style="dominant-baseline: middle; font-size: 10.2px;" transform="translate(5,35.25)" y="0" x="0" id="text-entity-Profile-65951d1c-3786-5f44-9bc8-1c33704e73ca-attr-1-type" class="er entityLabel">String</text><rect height="22.5" width="57.6484375" y="24" x="53.6640625" class="er attributeBoxOdd"/><text style="dominant-baseline: middle; font-size: 10.2px;" transform="translate(58.6640625,35.25)" y="0" x="0" id="text-entity-Profile-65951d1c-3786-5f44-9bc8-1c33704e73ca-attr-1-name" class="er entityLabel">id</text><rect height="22.5" width="22.5" y="24" x="111.3125" class="er attributeBoxOdd"/><text style="dominant-baseline: middle; font-size: 10.2px;" transform="translate(116.3125,35.25)" y="0" x="0" id="text-entity-Profile-65951d1c-3786-5f44-9bc8-1c33704e73ca-attr-1-comment" class="er entityLabel">🗝️</text><rect height="22" width="53.6640625" y="46.5" x="0" class="er attributeBoxEven"/><text style="dominant-baseline: middle; font-size: 10.2px;" transform="translate(5,57.5)" y="0" x="0" id="text-entity-Profile-65951d1c-3786-5f44-9bc8-1c33704e73ca-attr-2-type" class="er entityLabel">String</text><rect height="22" width="57.6484375" y="46.5" x="53.6640625" class="er attributeBoxEven"/><text style="dominant-baseline: middle; font-size: 10.2px;" transform="translate(58.6640625,57.5)" y="0" x="0" id="text-entity-Profile-65951d1c-3786-5f44-9bc8-1c33704e73ca-attr-2-name" class="er entityLabel">userId</text><rect height="22" width="22.5" y="46.5" x="111.3125" class="er attributeBoxEven"/><text style="dominant-baseline: middle; font-size: 10.2px;" transform="translate(116.3125,57.5)" y="0" x="0" id="text-entity-Profile-65951d1c-3786-5f44-9bc8-1c33704e73ca-attr-2-comment" class="er entityLabel"/><rect height="22" width="53.6640625" y="68.5" x="0" class="er attributeBoxOdd"/><text style="dominant-baseline: middle; font-size: 10.2px;" transform="translate(5,79.5)" y="0" x="0" id="text-entity-Profile-65951d1c-3786-5f44-9bc8-1c33704e73ca-attr-3-type" class="er entityLabel">String</text><rect height="22" width="57.6484375" y="68.5" x="53.6640625" class="er attributeBoxOdd"/><text style="dominant-baseline: middle; font-size: 10.2px;" transform="translate(58.6640625,79.5)" y="0" x="0" id="text-entity-Profile-65951d1c-3786-5f44-9bc8-1c33704e73ca-attr-3-name" class="er entityLabel">name</text><rect height="22" width="22.5" y="68.5" x="111.3125" class="er attributeBoxOdd"/><text style="dominant-baseline: middle; font-size: 10.2px;" transform="translate(116.3125,79.5)" y="0" x="0" id="text-entity-Profile-65951d1c-3786-5f44-9bc8-1c33704e73ca-attr-3-comment" class="er entityLabel"/><rect height="22" width="53.6640625" y="90.5" x="0" class="er attributeBoxEven"/><text style="dominant-baseline: middle; font-size: 10.2px;" transform="translate(5,101.5)" y="0" x="0" id="text-entity-Profile-65951d1c-3786-5f44-9bc8-1c33704e73ca-attr-4-type" class="er entityLabel">String</text><rect height="22" width="57.6484375" y="90.5" x="53.6640625" class="er attributeBoxEven"/><text style="dominant-baseline: middle; font-size: 10.2px;" transform="translate(58.6640625,101.5)" y="0" x="0" id="text-entity-Profile-65951d1c-3786-5f44-9bc8-1c33704e73ca-attr-4-name" class="er entityLabel">imageUrl</text><rect height="22" width="22.5" y="90.5" x="111.3125" class="er attributeBoxEven"/><text style="dominant-baseline: middle; font-size: 10.2px;" transform="translate(116.3125,101.5)" y="0" x="0" id="text-entity-Profile-65951d1c-3786-5f44-9bc8-1c33704e73ca-attr-4-comment" class="er entityLabel"/><rect height="22" width="53.6640625" y="112.5" x="0" class="er attributeBoxOdd"/><text style="dominant-baseline: middle; font-size: 10.2px;" transform="translate(5,123.5)" y="0" x="0" id="text-entity-Profile-65951d1c-3786-5f44-9bc8-1c33704e73ca-attr-5-type" class="er entityLabel">String</text><rect height="22" width="57.6484375" y="112.5" x="53.6640625" class="er attributeBoxOdd"/><text style="dominant-baseline: middle; font-size: 10.2px;" transform="translate(58.6640625,123.5)" y="0" x="0" id="text-entity-Profile-65951d1c-3786-5f44-9bc8-1c33704e73ca-attr-5-name" class="er entityLabel">email</text><rect height="22" width="22.5" y="112.5" x="111.3125" class="er attributeBoxOdd"/><text style="dominant-baseline: middle; font-size: 10.2px;" transform="translate(116.3125,123.5)" y="0" x="0" id="text-entity-Profile-65951d1c-3786-5f44-9bc8-1c33704e73ca-attr-5-comment" class="er entityLabel"/><rect height="22" width="53.6640625" y="134.5" x="0" class="er attributeBoxEven"/><text style="dominant-baseline: middle; font-size: 10.2px;" transform="translate(5,145.5)" y="0" x="0" id="text-entity-Profile-65951d1c-3786-5f44-9bc8-1c33704e73ca-attr-6-type" class="er entityLabel">DateTime</text><rect height="22" width="57.6484375" y="134.5" x="53.6640625" class="er attributeBoxEven"/><text style="dominant-baseline: middle; font-size: 10.2px;" transform="translate(58.6640625,145.5)" y="0" x="0" id="text-entity-Profile-65951d1c-3786-5f44-9bc8-1c33704e73ca-attr-6-name" class="er entityLabel">createdAt</text><rect height="22" width="22.5" y="134.5" x="111.3125" class="er attributeBoxEven"/><text style="dominant-baseline: middle; font-size: 10.2px;" transform="translate(116.3125,145.5)" y="0" x="0" id="text-entity-Profile-65951d1c-3786-5f44-9bc8-1c33704e73ca-attr-6-comment" class="er entityLabel"/><rect height="22" width="53.6640625" y="156.5" x="0" class="er attributeBoxOdd"/><text style="dominant-baseline: middle; font-size: 10.2px;" transform="translate(5,167.5)" y="0" x="0" id="text-entity-Profile-65951d1c-3786-5f44-9bc8-1c33704e73ca-attr-7-type" class="er entityLabel">DateTime</text><rect height="22" width="57.6484375" y="156.5" x="53.6640625" class="er attributeBoxOdd"/><text style="dominant-baseline: middle; font-size: 10.2px;" transform="translate(58.6640625,167.5)" y="0" x="0" id="text-entity-Profile-65951d1c-3786-5f44-9bc8-1c33704e73ca-attr-7-name" class="er entityLabel">updatedAt</text><rect height="22" width="22.5" y="156.5" x="111.3125" class="er attributeBoxOdd"/><text style="dominant-baseline: middle; font-size: 10.2px;" transform="translate(116.3125,167.5)" y="0" x="0" id="text-entity-Profile-65951d1c-3786-5f44-9bc8-1c33704e73ca-attr-7-comment" class="er entityLabel"/></g><g transform="translate(259.3515625,298.5 )" id="entity-Server-08cd9ada-0445-5cf2-ab70-3380cc63202d"><rect height="178.5" width="134.984375" y="0" x="0" class="er entityBox"/><text style="dominant-baseline: middle; text-anchor: middle; font-size: 12px;" transform="translate(67.4921875,12)" y="0" x="0" id="text-entity-Server-08cd9ada-0445-5cf2-ab70-3380cc63202d" class="er entityLabel">Server</text><rect height="22.5" width="53.6640625" y="24" x="0" class="er attributeBoxOdd"/><text style="dominant-baseline: middle; font-size: 10.2px;" transform="translate(5,35.25)" y="0" x="0" id="text-entity-Server-08cd9ada-0445-5cf2-ab70-3380cc63202d-attr-1-type" class="er entityLabel">String</text><rect height="22.5" width="58.8203125" y="24" x="53.6640625" class="er attributeBoxOdd"/><text style="dominant-baseline: middle; font-size: 10.2px;" transform="translate(58.6640625,35.25)" y="0" x="0" id="text-entity-Server-08cd9ada-0445-5cf2-ab70-3380cc63202d-attr-1-name" class="er entityLabel">id</text><rect height="22.5" width="22.5" y="24" x="112.484375" class="er attributeBoxOdd"/><text style="dominant-baseline: middle; font-size: 10.2px;" transform="translate(117.484375,35.25)" y="0" x="0" id="text-entity-Server-08cd9ada-0445-5cf2-ab70-3380cc63202d-attr-1-comment" class="er entityLabel">🗝️</text><rect height="22" width="53.6640625" y="46.5" x="0" class="er attributeBoxEven"/><text style="dominant-baseline: middle; font-size: 10.2px;" transform="translate(5,57.5)" y="0" x="0" id="text-entity-Server-08cd9ada-0445-5cf2-ab70-3380cc63202d-attr-2-type" class="er entityLabel">String</text><rect height="22" width="58.8203125" y="46.5" x="53.6640625" class="er attributeBoxEven"/><text style="dominant-baseline: middle; font-size: 10.2px;" transform="translate(58.6640625,57.5)" y="0" x="0" id="text-entity-Server-08cd9ada-0445-5cf2-ab70-3380cc63202d-attr-2-name" class="er entityLabel">name</text><rect height="22" width="22.5" y="46.5" x="112.484375" class="er attributeBoxEven"/><text style="dominant-baseline: middle; font-size: 10.2px;" transform="translate(117.484375,57.5)" y="0" x="0" id="text-entity-Server-08cd9ada-0445-5cf2-ab70-3380cc63202d-attr-2-comment" class="er entityLabel"/><rect height="22" width="53.6640625" y="68.5" x="0" class="er attributeBoxOdd"/><text style="dominant-baseline: middle; font-size: 10.2px;" transform="translate(5,79.5)" y="0" x="0" id="text-entity-Server-08cd9ada-0445-5cf2-ab70-3380cc63202d-attr-3-type" class="er entityLabel">String</text><rect height="22" width="58.8203125" y="68.5" x="53.6640625" class="er attributeBoxOdd"/><text style="dominant-baseline: middle; font-size: 10.2px;" transform="translate(58.6640625,79.5)" y="0" x="0" id="text-entity-Server-08cd9ada-0445-5cf2-ab70-3380cc63202d-attr-3-name" class="er entityLabel">imageUrl</text><rect height="22" width="22.5" y="68.5" x="112.484375" class="er attributeBoxOdd"/><text style="dominant-baseline: middle; font-size: 10.2px;" transform="translate(117.484375,79.5)" y="0" x="0" id="text-entity-Server-08cd9ada-0445-5cf2-ab70-3380cc63202d-attr-3-comment" class="er entityLabel"/><rect height="22" width="53.6640625" y="90.5" x="0" class="er attributeBoxEven"/><text style="dominant-baseline: middle; font-size: 10.2px;" transform="translate(5,101.5)" y="0" x="0" id="text-entity-Server-08cd9ada-0445-5cf2-ab70-3380cc63202d-attr-4-type" class="er entityLabel">String</text><rect height="22" width="58.8203125" y="90.5" x="53.6640625" class="er attributeBoxEven"/><text style="dominant-baseline: middle; font-size: 10.2px;" transform="translate(58.6640625,101.5)" y="0" x="0" id="text-entity-Server-08cd9ada-0445-5cf2-ab70-3380cc63202d-attr-4-name" class="er entityLabel">inviteCode</text><rect height="22" width="22.5" y="90.5" x="112.484375" class="er attributeBoxEven"/><text style="dominant-baseline: middle; font-size: 10.2px;" transform="translate(117.484375,101.5)" y="0" x="0" id="text-entity-Server-08cd9ada-0445-5cf2-ab70-3380cc63202d-attr-4-comment" class="er entityLabel"/><rect height="22" width="53.6640625" y="112.5" x="0" class="er attributeBoxOdd"/><text style="dominant-baseline: middle; font-size: 10.2px;" transform="translate(5,123.5)" y="0" x="0" id="text-entity-Server-08cd9ada-0445-5cf2-ab70-3380cc63202d-attr-5-type" class="er entityLabel">String</text><rect height="22" width="58.8203125" y="112.5" x="53.6640625" class="er attributeBoxOdd"/><text style="dominant-baseline: middle; font-size: 10.2px;" transform="translate(58.6640625,123.5)" y="0" x="0" id="text-entity-Server-08cd9ada-0445-5cf2-ab70-3380cc63202d-attr-5-name" class="er entityLabel">profileId</text><rect height="22" width="22.5" y="112.5" x="112.484375" class="er attributeBoxOdd"/><text style="dominant-baseline: middle; font-size: 10.2px;" transform="translate(117.484375,123.5)" y="0" x="0" id="text-entity-Server-08cd9ada-0445-5cf2-ab70-3380cc63202d-attr-5-comment" class="er entityLabel"/><rect height="22" width="53.6640625" y="134.5" x="0" class="er attributeBoxEven"/><text style="dominant-baseline: middle; font-size: 10.2px;" transform="translate(5,145.5)" y="0" x="0" id="text-entity-Server-08cd9ada-0445-5cf2-ab70-3380cc63202d-attr-6-type" class="er entityLabel">DateTime</text><rect height="22" width="58.8203125" y="134.5" x="53.6640625" class="er attributeBoxEven"/><text style="dominant-baseline: middle; font-size: 10.2px;" transform="translate(58.6640625,145.5)" y="0" x="0" id="text-entity-Server-08cd9ada-0445-5cf2-ab70-3380cc63202d-attr-6-name" class="er entityLabel">createdAt</text><rect height="22" width="22.5" y="134.5" x="112.484375" class="er attributeBoxEven"/><text style="dominant-baseline: middle; font-size: 10.2px;" transform="translate(117.484375,145.5)" y="0" x="0" id="text-entity-Server-08cd9ada-0445-5cf2-ab70-3380cc63202d-attr-6-comment" class="er entityLabel"/><rect height="22" width="53.6640625" y="156.5" x="0" class="er attributeBoxOdd"/><text style="dominant-baseline: middle; font-size: 10.2px;" transform="translate(5,167.5)" y="0" x="0" id="text-entity-Server-08cd9ada-0445-5cf2-ab70-3380cc63202d-attr-7-type" class="er entityLabel">DateTime</text><rect height="22" width="58.8203125" y="156.5" x="53.6640625" class="er attributeBoxOdd"/><text style="dominant-baseline: middle; font-size: 10.2px;" transform="translate(58.6640625,167.5)" y="0" x="0" id="text-entity-Server-08cd9ada-0445-5cf2-ab70-3380cc63202d-attr-7-name" class="er entityLabel">updatedAt</text><rect height="22" width="22.5" y="156.5" x="112.484375" class="er attributeBoxOdd"/><text style="dominant-baseline: middle; font-size: 10.2px;" transform="translate(117.484375,167.5)" y="0" x="0" id="text-entity-Server-08cd9ada-0445-5cf2-ab70-3380cc63202d-attr-7-comment" class="er entityLabel"/></g><g transform="translate(20,588 )" id="entity-Member-da0843c3-d2cb-5701-b506-40a0471bbb02"><rect height="156.5" width="146.1953125" y="0" x="0" class="er entityBox"/><text style="dominant-baseline: middle; text-anchor: middle; font-size: 12px;" transform="translate(73.09765625,12)" y="0" x="0" id="text-entity-Member-da0843c3-d2cb-5701-b506-40a0471bbb02" class="er entityLabel">Member</text><rect height="22.5" width="66.046875" y="24" x="0" class="er attributeBoxOdd"/><text style="dominant-baseline: middle; font-size: 10.2px;" transform="translate(5,35.25)" y="0" x="0" id="text-entity-Member-da0843c3-d2cb-5701-b506-40a0471bbb02-attr-1-type" class="er entityLabel">String</text><rect height="22.5" width="57.6484375" y="24" x="66.046875" class="er attributeBoxOdd"/><text style="dominant-baseline: middle; font-size: 10.2px;" transform="translate(71.046875,35.25)" y="0" x="0" id="text-entity-Member-da0843c3-d2cb-5701-b506-40a0471bbb02-attr-1-name" class="er entityLabel">id</text><rect height="22.5" width="22.5" y="24" x="123.6953125" class="er attributeBoxOdd"/><text style="dominant-baseline: middle; font-size: 10.2px;" transform="translate(128.6953125,35.25)" y="0" x="0" id="text-entity-Member-da0843c3-d2cb-5701-b506-40a0471bbb02-attr-1-comment" class="er entityLabel">🗝️</text><rect height="22" width="66.046875" y="46.5" x="0" class="er attributeBoxEven"/><text style="dominant-baseline: middle; font-size: 10.2px;" transform="translate(5,57.5)" y="0" x="0" id="text-entity-Member-da0843c3-d2cb-5701-b506-40a0471bbb02-attr-2-type" class="er entityLabel">MemberRole</text><rect height="22" width="57.6484375" y="46.5" x="66.046875" class="er attributeBoxEven"/><text style="dominant-baseline: middle; font-size: 10.2px;" transform="translate(71.046875,57.5)" y="0" x="0" id="text-entity-Member-da0843c3-d2cb-5701-b506-40a0471bbb02-attr-2-name" class="er entityLabel">role</text><rect height="22" width="22.5" y="46.5" x="123.6953125" class="er attributeBoxEven"/><text style="dominant-baseline: middle; font-size: 10.2px;" transform="translate(128.6953125,57.5)" y="0" x="0" id="text-entity-Member-da0843c3-d2cb-5701-b506-40a0471bbb02-attr-2-comment" class="er entityLabel"/><rect height="22" width="66.046875" y="68.5" x="0" class="er attributeBoxOdd"/><text style="dominant-baseline: middle; font-size: 10.2px;" transform="translate(5,79.5)" y="0" x="0" id="text-entity-Member-da0843c3-d2cb-5701-b506-40a0471bbb02-attr-3-type" class="er entityLabel">String</text><rect height="22" width="57.6484375" y="68.5" x="66.046875" class="er attributeBoxOdd"/><text style="dominant-baseline: middle; font-size: 10.2px;" transform="translate(71.046875,79.5)" y="0" x="0" id="text-entity-Member-da0843c3-d2cb-5701-b506-40a0471bbb02-attr-3-name" class="er entityLabel">profileId</text><rect height="22" width="22.5" y="68.5" x="123.6953125" class="er attributeBoxOdd"/><text style="dominant-baseline: middle; font-size: 10.2px;" transform="translate(128.6953125,79.5)" y="0" x="0" id="text-entity-Member-da0843c3-d2cb-5701-b506-40a0471bbb02-attr-3-comment" class="er entityLabel"/><rect height="22" width="66.046875" y="90.5" x="0" class="er attributeBoxEven"/><text style="dominant-baseline: middle; font-size: 10.2px;" transform="translate(5,101.5)" y="0" x="0" id="text-entity-Member-da0843c3-d2cb-5701-b506-40a0471bbb02-attr-4-type" class="er entityLabel">String</text><rect height="22" width="57.6484375" y="90.5" x="66.046875" class="er attributeBoxEven"/><text style="dominant-baseline: middle; font-size: 10.2px;" transform="translate(71.046875,101.5)" y="0" x="0" id="text-entity-Member-da0843c3-d2cb-5701-b506-40a0471bbb02-attr-4-name" class="er entityLabel">serverId</text><rect height="22" width="22.5" y="90.5" x="123.6953125" class="er attributeBoxEven"/><text style="dominant-baseline: middle; font-size: 10.2px;" transform="translate(128.6953125,101.5)" y="0" x="0" id="text-entity-Member-da0843c3-d2cb-5701-b506-40a0471bbb02-attr-4-comment" class="er entityLabel"/><rect height="22" width="66.046875" y="112.5" x="0" class="er attributeBoxOdd"/><text style="dominant-baseline: middle; font-size: 10.2px;" transform="translate(5,123.5)" y="0" x="0" id="text-entity-Member-da0843c3-d2cb-5701-b506-40a0471bbb02-attr-5-type" class="er entityLabel">DateTime</text><rect height="22" width="57.6484375" y="112.5" x="66.046875" class="er attributeBoxOdd"/><text style="dominant-baseline: middle; font-size: 10.2px;" transform="translate(71.046875,123.5)" y="0" x="0" id="text-entity-Member-da0843c3-d2cb-5701-b506-40a0471bbb02-attr-5-name" class="er entityLabel">createdAt</text><rect height="22" width="22.5" y="112.5" x="123.6953125" class="er attributeBoxOdd"/><text style="dominant-baseline: middle; font-size: 10.2px;" transform="translate(128.6953125,123.5)" y="0" x="0" id="text-entity-Member-da0843c3-d2cb-5701-b506-40a0471bbb02-attr-5-comment" class="er entityLabel"/><rect height="22" width="66.046875" y="134.5" x="0" class="er attributeBoxEven"/><text style="dominant-baseline: middle; font-size: 10.2px;" transform="translate(5,145.5)" y="0" x="0" id="text-entity-Member-da0843c3-d2cb-5701-b506-40a0471bbb02-attr-6-type" class="er entityLabel">DateTime</text><rect height="22" width="57.6484375" y="134.5" x="66.046875" class="er attributeBoxEven"/><text style="dominant-baseline: middle; font-size: 10.2px;" transform="translate(71.046875,145.5)" y="0" x="0" id="text-entity-Member-da0843c3-d2cb-5701-b506-40a0471bbb02-attr-6-name" class="er entityLabel">updatedAt</text><rect height="22" width="22.5" y="134.5" x="123.6953125" class="er attributeBoxEven"/><text style="dominant-baseline: middle; font-size: 10.2px;" transform="translate(128.6953125,145.5)" y="0" x="0" id="text-entity-Member-da0843c3-d2cb-5701-b506-40a0471bbb02-attr-6-comment" class="er entityLabel"/></g><g transform="translate(586.62890625,577 )" id="entity-Channel-b37d1e29-5834-522a-9ba8-7b58491447bb"><rect height="178.5" width="147.921875" y="0" x="0" class="er entityBox"/><text style="dominant-baseline: middle; text-anchor: middle; font-size: 12px;" transform="translate(73.9609375,12)" y="0" x="0" id="text-entity-Channel-b37d1e29-5834-522a-9ba8-7b58491447bb" class="er entityLabel">Channel</text><rect height="22.5" width="67.7734375" y="24" x="0" class="er attributeBoxOdd"/><text style="dominant-baseline: middle; font-size: 10.2px;" transform="translate(5,35.25)" y="0" x="0" id="text-entity-Channel-b37d1e29-5834-522a-9ba8-7b58491447bb-attr-1-type" class="er entityLabel">String</text><rect height="22.5" width="57.6484375" y="24" x="67.7734375" class="er attributeBoxOdd"/><text style="dominant-baseline: middle; font-size: 10.2px;" transform="translate(72.7734375,35.25)" y="0" x="0" id="text-entity-Channel-b37d1e29-5834-522a-9ba8-7b58491447bb-attr-1-name" class="er entityLabel">id</text><rect height="22.5" width="22.5" y="24" x="125.421875" class="er attributeBoxOdd"/><text style="dominant-baseline: middle; font-size: 10.2px;" transform="translate(130.421875,35.25)" y="0" x="0" id="text-entity-Channel-b37d1e29-5834-522a-9ba8-7b58491447bb-attr-1-comment" class="er entityLabel">🗝️</text><rect height="22" width="67.7734375" y="46.5" x="0" class="er attributeBoxEven"/><text style="dominant-baseline: middle; font-size: 10.2px;" transform="translate(5,57.5)" y="0" x="0" id="text-entity-Channel-b37d1e29-5834-522a-9ba8-7b58491447bb-attr-2-type" class="er entityLabel">String</text><rect height="22" width="57.6484375" y="46.5" x="67.7734375" class="er attributeBoxEven"/><text style="dominant-baseline: middle; font-size: 10.2px;" transform="translate(72.7734375,57.5)" y="0" x="0" id="text-entity-Channel-b37d1e29-5834-522a-9ba8-7b58491447bb-attr-2-name" class="er entityLabel">name</text><rect height="22" width="22.5" y="46.5" x="125.421875" class="er attributeBoxEven"/><text style="dominant-baseline: middle; font-size: 10.2px;" transform="translate(130.421875,57.5)" y="0" x="0" id="text-entity-Channel-b37d1e29-5834-522a-9ba8-7b58491447bb-attr-2-comment" class="er entityLabel"/><rect height="22" width="67.7734375" y="68.5" x="0" class="er attributeBoxOdd"/><text style="dominant-baseline: middle; font-size: 10.2px;" transform="translate(5,79.5)" y="0" x="0" id="text-entity-Channel-b37d1e29-5834-522a-9ba8-7b58491447bb-attr-3-type" class="er entityLabel">ChannelType</text><rect height="22" width="57.6484375" y="68.5" x="67.7734375" class="er attributeBoxOdd"/><text style="dominant-baseline: middle; font-size: 10.2px;" transform="translate(72.7734375,79.5)" y="0" x="0" id="text-entity-Channel-b37d1e29-5834-522a-9ba8-7b58491447bb-attr-3-name" class="er entityLabel">type</text><rect height="22" width="22.5" y="68.5" x="125.421875" class="er attributeBoxOdd"/><text style="dominant-baseline: middle; font-size: 10.2px;" transform="translate(130.421875,79.5)" y="0" x="0" id="text-entity-Channel-b37d1e29-5834-522a-9ba8-7b58491447bb-attr-3-comment" class="er entityLabel"/><rect height="22" width="67.7734375" y="90.5" x="0" class="er attributeBoxEven"/><text style="dominant-baseline: middle; font-size: 10.2px;" transform="translate(5,101.5)" y="0" x="0" id="text-entity-Channel-b37d1e29-5834-522a-9ba8-7b58491447bb-attr-4-type" class="er entityLabel">String</text><rect height="22" width="57.6484375" y="90.5" x="67.7734375" class="er attributeBoxEven"/><text style="dominant-baseline: middle; font-size: 10.2px;" transform="translate(72.7734375,101.5)" y="0" x="0" id="text-entity-Channel-b37d1e29-5834-522a-9ba8-7b58491447bb-attr-4-name" class="er entityLabel">profileId</text><rect height="22" width="22.5" y="90.5" x="125.421875" class="er attributeBoxEven"/><text style="dominant-baseline: middle; font-size: 10.2px;" transform="translate(130.421875,101.5)" y="0" x="0" id="text-entity-Channel-b37d1e29-5834-522a-9ba8-7b58491447bb-attr-4-comment" class="er entityLabel"/><rect height="22" width="67.7734375" y="112.5" x="0" class="er attributeBoxOdd"/><text style="dominant-baseline: middle; font-size: 10.2px;" transform="translate(5,123.5)" y="0" x="0" id="text-entity-Channel-b37d1e29-5834-522a-9ba8-7b58491447bb-attr-5-type" class="er entityLabel">String</text><rect height="22" width="57.6484375" y="112.5" x="67.7734375" class="er attributeBoxOdd"/><text style="dominant-baseline: middle; font-size: 10.2px;" transform="translate(72.7734375,123.5)" y="0" x="0" id="text-entity-Channel-b37d1e29-5834-522a-9ba8-7b58491447bb-attr-5-name" class="er entityLabel">serverId</text><rect height="22" width="22.5" y="112.5" x="125.421875" class="er attributeBoxOdd"/><text style="dominant-baseline: middle; font-size: 10.2px;" transform="translate(130.421875,123.5)" y="0" x="0" id="text-entity-Channel-b37d1e29-5834-522a-9ba8-7b58491447bb-attr-5-comment" class="er entityLabel"/><rect height="22" width="67.7734375" y="134.5" x="0" class="er attributeBoxEven"/><text style="dominant-baseline: middle; font-size: 10.2px;" transform="translate(5,145.5)" y="0" x="0" id="text-entity-Channel-b37d1e29-5834-522a-9ba8-7b58491447bb-attr-6-type" class="er entityLabel">DateTime</text><rect height="22" width="57.6484375" y="134.5" x="67.7734375" class="er attributeBoxEven"/><text style="dominant-baseline: middle; font-size: 10.2px;" transform="translate(72.7734375,145.5)" y="0" x="0" id="text-entity-Channel-b37d1e29-5834-522a-9ba8-7b58491447bb-attr-6-name" class="er entityLabel">createdAt</text><rect height="22" width="22.5" y="134.5" x="125.421875" class="er attributeBoxEven"/><text style="dominant-baseline: middle; font-size: 10.2px;" transform="translate(130.421875,145.5)" y="0" x="0" id="text-entity-Channel-b37d1e29-5834-522a-9ba8-7b58491447bb-attr-6-comment" class="er entityLabel"/><rect height="22" width="67.7734375" y="156.5" x="0" class="er attributeBoxOdd"/><text style="dominant-baseline: middle; font-size: 10.2px;" transform="translate(5,167.5)" y="0" x="0" id="text-entity-Channel-b37d1e29-5834-522a-9ba8-7b58491447bb-attr-7-type" class="er entityLabel">DateTime</text><rect height="22" width="57.6484375" y="156.5" x="67.7734375" class="er attributeBoxOdd"/><text style="dominant-baseline: middle; font-size: 10.2px;" transform="translate(72.7734375,167.5)" y="0" x="0" id="text-entity-Channel-b37d1e29-5834-522a-9ba8-7b58491447bb-attr-7-name" class="er entityLabel">updatedAt</text><rect height="22" width="22.5" y="156.5" x="125.421875" class="er attributeBoxOdd"/><text style="dominant-baseline: middle; font-size: 10.2px;" transform="translate(130.421875,167.5)" y="0" x="0" id="text-entity-Channel-b37d1e29-5834-522a-9ba8-7b58491447bb-attr-7-comment" class="er entityLabel"/></g><rect height="14" width="38.015625" y="241.50001525878906" x="263.82037353515625" class="er relationshipLabelBox"/><text style="text-anchor: middle; dominant-baseline: middle; font-size: 12px;" y="248.50001525878906" x="282.82818603515625" id="rel1" class="er relationshipLabel">servers</text><rect height="14" width="49.21875" y="280.7360534667969" x="-61.009613037109375" class="er relationshipLabelBox"/><text style="text-anchor: middle; dominant-baseline: middle; font-size: 12px;" y="287.7360534667969" x="-36.400238037109375" id="rel2" class="er relationshipLabel">members</text><rect height="14" width="46.859375" y="361.5876159667969" x="487.10894775390625" class="er relationshipLabelBox"/><text style="text-anchor: middle; dominant-baseline: middle; font-size: 12px;" y="368.5876159667969" x="510.53863525390625" id="rel3" class="er relationshipLabel">channels</text><rect height="14" width="35.734375" y="241.5" x="352.99212646484375" class="er relationshipLabelBox"/><text style="text-anchor: middle; dominant-baseline: middle; font-size: 12px;" y="248.5" x="370.85931396484375" id="rel4" class="er relationshipLabel">profile</text><rect height="14" width="49.21875" y="477.816650390625" x="109.93423461914062" class="er relationshipLabelBox"/><text style="text-anchor: middle; dominant-baseline: middle; font-size: 12px;" y="484.816650390625" x="134.54360961914062" id="rel5" class="er relationshipLabel">members</text><rect height="14" width="46.859375" y="478.5155029296875" x="499.2742919921875" class="er relationshipLabelBox"/><text style="text-anchor: middle; dominant-baseline: middle; font-size: 12px;" y="485.5155029296875" x="522.7039794921875" id="rel6" class="er relationshipLabel">channels</text><rect height="14" width="55.21875" y="793" x="65.48828125" class="er relationshipLabelBox"/><text style="text-anchor: middle; dominant-baseline: middle; font-size: 12px;" y="800" x="93.09765625" id="rel7" class="er relationshipLabel">enum:role</text><rect height="14" width="35.734375" y="346.0592041015625" x="125.5350341796875" class="er relationshipLabelBox"/><text style="text-anchor: middle; dominant-baseline: middle; font-size: 12px;" y="353.0592041015625" x="143.4022216796875" id="rel8" class="er relationshipLabel">profile</text><rect height="14" width="33.15625" y="556.1168212890625" x="246.0587158203125" class="er relationshipLabelBox"/><text style="text-anchor: middle; dominant-baseline: middle; font-size: 12px;" y="563.1168212890625" x="262.6368408203125" id="rel9" class="er relationshipLabel">server</text><rect height="14" width="57.9375" y="798.5" x="631.62109375" class="er relationshipLabelBox"/><text style="text-anchor: middle; dominant-baseline: middle; font-size: 12px;" y="805.5" x="660.58984375" id="rel10" class="er relationshipLabel">enum:type</text><rect height="14" width="35.734375" y="263.3813781738281" x="658.9652099609375" class="er relationshipLabelBox"/><text style="text-anchor: middle; dominant-baseline: middle; font-size: 12px;" y="270.3813781738281" x="676.8323974609375" id="rel11" class="er relationshipLabel">profile</text><rect height="14" width="33.15625" y="465.9034729003906" x="597.474853515625" class="er relationshipLabelBox"/><text style="text-anchor: middle; dominant-baseline: middle; font-size: 12px;" y="472.9034729003906" x="614.052978515625" id="rel12" class="er relationshipLabel">server</text></svg>